<svg xmlns="http://www.w3.org/2000/svg" width="62.002" height="62" viewBox="0 0 62.002 62">
  <g id="phone_3_" data-name="phone(3)" transform="translate(0 -0.004)">
    <path id="Path_11577" data-name="Path 11577" d="M101.969,151.967l1.2,2.082a.877.877,0,0,0,1.2.321l1.791-1.034a.877.877,0,0,0,.321-1.2l-1.2-2.082Z" transform="translate(-70.359 -103.536)" fill="#23c9d9"/>
    <g id="Group_2533" data-name="Group 2533" transform="translate(40.445 33.503)">
      <circle id="Ellipse_356" data-name="Ellipse 356" cx="1.937" cy="1.937" r="1.937" transform="translate(16.472)" fill="#23c9d9"/>
      <circle id="Ellipse_357" data-name="Ellipse 357" cx="1.937" cy="1.937" r="1.937" fill="#23c9d9"/>
      <circle id="Ellipse_358" data-name="Ellipse 358" cx="1.937" cy="1.937" r="1.937" transform="translate(8.238)" fill="#23c9d9"/>
    </g>
    <path id="Path_11578" data-name="Path 11578" d="M17.61,20.11l1.588-.917a4.644,4.644,0,0,0,1.7-6.344L17.081,6.238a4.644,4.644,0,0,0-6.344-1.7h0A13.63,13.63,0,0,0,5.748,23.157l12.419,21.51a13.63,13.63,0,0,0,18.619,4.989h0a4.644,4.644,0,0,0,1.7-6.344L34.669,36.7A4.644,4.644,0,0,0,28.325,35l-1.588.917a1.819,1.819,0,0,1-2.485-.666L16.943,22.595A1.819,1.819,0,0,1,17.61,20.11Z" transform="translate(-2.704 -2.699)" fill="#23c9d9"/>
    <g id="Group_2534" data-name="Group 2534" transform="translate(7.634 1.216)">
      <path id="Path_11579" data-name="Path 11579" d="M91.909,111.116l-3.817-6.611a4.644,4.644,0,0,0-6.344-1.7l-.4.233L89.8,117.685c.136-.073.272-.147.407-.225h0A4.644,4.644,0,0,0,91.909,111.116Z" transform="translate(-63.762 -71.719)" fill="#077b86"/>
      <path id="Path_11580" data-name="Path 11580" d="M33.081,19.425l.4-.233a4.644,4.644,0,0,0,1.7-6.344L31.367,6.237a4.645,4.645,0,0,0-6.344-1.7h0c-.135.078-.267.159-.4.24Z" transform="translate(-24.624 -3.915)" fill="#077b86"/>
    </g>
    <path id="Path_11581" data-name="Path 11581" d="M23.425,49.488A14.924,14.924,0,0,0,27.29,50a14.647,14.647,0,0,0,3.572-.444l.9,1.562A2.089,2.089,0,0,0,34.373,52a.773.773,0,0,1-.033.6.757.757,0,0,1-.7.446H27.431a1.211,1.211,0,1,0,0,2.422h6.206A3.2,3.2,0,0,0,36.483,50.8,2.083,2.083,0,0,0,37.17,48l-.824-1.427a5.863,5.863,0,0,0,.483-6.563L33.013,33.4a5.855,5.855,0,0,0-8-2.143l-1.588.917a.609.609,0,0,1-.831-.223L15.288,19.291a.609.609,0,0,1,.223-.831l1.588-.917a5.862,5.862,0,0,0,2.143-8L15.425,2.934a5.855,5.855,0,0,0-8-2.143A14.841,14.841,0,0,0,1.995,21.063l12.419,21.51A14.744,14.744,0,0,0,23.425,49.488Zm9.772-.731q.639-.28,1.257-.622l.452.784-1.212.7ZM2.851,10.429A12.337,12.337,0,0,1,8.638,2.888a3.413,3.413,0,0,1,1.711-.462,3.449,3.449,0,0,1,.894.119,3.411,3.411,0,0,1,2.085,1.6l3.817,6.611a3.439,3.439,0,0,1-.693,4.284L11.663,6.745a1.211,1.211,0,0,0-2.1,1.211l4.824,8.355-.089.052h0a3.034,3.034,0,0,0-1.109,4.14L20.5,33.158a3.03,3.03,0,0,0,3.829,1.265l4.6,7.976a1.211,1.211,0,1,0,2.1-1.211l-4.59-7.95a3.432,3.432,0,0,1,4.477,1.369l3.817,6.611a3.437,3.437,0,0,1-1.257,4.69,12.419,12.419,0,0,1-16.965-4.546L4.092,19.853A12.338,12.338,0,0,1,2.851,10.429Z" transform="translate(0)"/>
    <path id="Path_11582" data-name="Path 11582" d="M69.973,173.52a1.212,1.212,0,1,1,.856-.355A1.215,1.215,0,0,1,69.973,173.52Z" transform="translate(-47.445 -118.055)"/>
    <path id="Path_11583" data-name="Path 11583" d="M182.844,110.456a3.148,3.148,0,1,0-3.148-3.148A3.152,3.152,0,0,0,182.844,110.456Zm0-3.875a.727.727,0,1,1-.727.727A.727.727,0,0,1,182.844,106.582Z" transform="translate(-123.99 -71.868)"/>
    <path id="Path_11584" data-name="Path 11584" d="M129.712,110.456a3.148,3.148,0,1,0-3.148-3.148A3.152,3.152,0,0,0,129.712,110.456Zm0-3.875a.727.727,0,1,1-.727.727A.727.727,0,0,1,129.712,106.582Z" transform="translate(-87.329 -71.868)"/>
    <path id="Path_11585" data-name="Path 11585" d="M156.283,110.456a3.148,3.148,0,1,0-3.148-3.148A3.152,3.152,0,0,0,156.283,110.456Zm0-3.875a.727.727,0,1,1-.727.727A.727.727,0,0,1,156.283,106.582Z" transform="translate(-105.663 -71.868)"/>
    <path id="Path_11586" data-name="Path 11586" d="M75.356,177.637H25.588a2.059,2.059,0,0,1,0-4.117h6.842a1.211,1.211,0,1,0,0-2.422H25.588a4.48,4.48,0,1,0,0,8.961H75.356a1.211,1.211,0,1,0,0-2.422Z" transform="translate(-14.564 -118.056)"/>
    <path id="Path_11587" data-name="Path 11587" d="M45.106,104.341a1.211,1.211,0,0,0,1.045-1.822l-4.689-8.032a1.211,1.211,0,0,0-2.092,1.221l4.689,8.032A1.211,1.211,0,0,0,45.106,104.341Z" transform="translate(-27.051 -64.779)"/>
    <path id="Path_11588" data-name="Path 11588" d="M33.993,81.71a1.211,1.211,0,0,0-1.713,0l-.094.094A1.211,1.211,0,1,0,33.9,83.516l.094-.094A1.211,1.211,0,0,0,33.993,81.71Z" transform="translate(-21.964 -56.132)"/>
  </g>
</svg>
