<svg xmlns="http://www.w3.org/2000/svg" width="52.843" height="52.843" viewBox="0 0 52.843 52.843">
  <g id="address_1_" data-name="address(1)" transform="translate(0)">
    <path id="Path_11569" data-name="Path 11569" d="M60.206,146.875H47.821l-10.321,13H70.527Zm0,0" transform="translate(-27.592 -108.068)" fill="#eafaff"/>
    <path id="Path_11570" data-name="Path 11570" d="M132.313,146.875h-8.876l10.321,13h8.876Zm0,0" transform="translate(-90.823 -108.068)" fill="#4ea8b1"/>
    <path id="Path_11571" data-name="Path 11571" d="M56.888,48.183l-12.881-20.2a15.481,15.481,0,1,1,25.763,0ZM64.62,24.536a9.29,9.29,0,1,0-7.733,4.141A9.222,9.222,0,0,0,64.62,24.536Zm0,0" transform="translate(-30.466 -2.874)" fill="#23c9d9"/>
    <path id="Path_11572" data-name="Path 11572" d="M14.227,146.875l-10.321,13h8.876l10.321-13Zm0,0" transform="translate(-2.874 -108.068)" fill="#4ea8b1"/>
    <path id="Path_11573" data-name="Path 11573" d="M120.563,101.563a1.032,1.032,0,1,0,1.032,1.032A1.033,1.033,0,0,0,120.563,101.563Zm0,0" transform="translate(-87.949 -74.728)"/>
    <path id="Path_11574" data-name="Path 11574" d="M10.545,38.165.224,51.17a1.032,1.032,0,0,0,.808,1.674H51.811a1.032,1.032,0,0,0,.808-1.674l-10.321-13a1.032,1.032,0,0,0-.808-.391H32.449l7.719-12.106a16.513,16.513,0,1,0-27.492,0l7.719,12.106H11.353A1.032,1.032,0,0,0,10.545,38.165ZM6.691,46.341h6.241L9.41,50.779H3.169Zm15.019-6.5,2.829,4.438H17.205l3.522-4.438Zm9.423,0h.983l3.522,4.438H28.3Zm6.143,6.5L40.8,50.779H12.045l3.522-4.438Zm6.157,4.438-3.522-4.438h6.241l3.522,4.438Zm1.08-6.5H38.273l-3.522-4.438h6.241ZM14.4,24.532a14.449,14.449,0,1,1,24.047,0l-.012.018L26.422,43.389,14.41,24.55Zm3.694,15.307L14.57,44.277H8.33l3.522-4.438Zm0,0" transform="translate(0)"/>
    <path id="Path_11575" data-name="Path 11575" d="M71.258,44.079A10.321,10.321,0,1,0,60.938,33.758,10.322,10.322,0,0,0,71.258,44.079Zm0-18.578A8.257,8.257,0,1,1,63,33.758,8.266,8.266,0,0,1,71.258,25.5Zm0,0" transform="translate(-44.837 -17.245)"/>
    <path id="Path_11576" data-name="Path 11576" d="M101.472,114.479a1.032,1.032,0,0,0-1.417.351l-3.815,6.329a1.032,1.032,0,1,0,1.768,1.066l3.815-6.329A1.032,1.032,0,0,0,101.472,114.479Zm0,0" transform="translate(-70.703 -84.123)"/>
  </g>
</svg>
