<svg id="letter" xmlns="http://www.w3.org/2000/svg" width="52.375" height="52.375" viewBox="0 0 52.375 52.375">
  <path id="Path_11589" data-name="Path 11589" d="M3.906,21.539V50.181A4.092,4.092,0,0,0,8,54.273H50.144a4.092,4.092,0,0,0,4.092-4.092V21.539L31.6,4.791a4.249,4.249,0,0,0-5.054,0Z" transform="translate(-2.883 -2.921)" fill="#077b86"/>
  <path id="Path_11590" data-name="Path 11590" d="M25,6V38.827H64.281V12.944L55.293,3.957H27.046A2.046,2.046,0,0,0,25,6Z" transform="translate(-18.453 -2.921)" fill="#fff"/>
  <path id="Path_11591" data-name="Path 11591" d="M149.627,12.906h-6.956a2.046,2.046,0,0,1-2.046-2.046V3.906Z" transform="translate(-103.799 -2.883)" fill="#077b86"/>
  <path id="Path_11592" data-name="Path 11592" d="M36.484,88.845H21.657L3.906,71.094V99.736A4.092,4.092,0,0,0,8,103.828H50.144a4.092,4.092,0,0,0,4.092-4.092V71.094Z" transform="translate(-2.883 -52.476)" fill="#23c9d9"/>
  <path id="Path_11593" data-name="Path 11593" d="M42.557,124.392a7.374,7.374,0,0,0-10.428,0L15.112,141.407a4.091,4.091,0,0,0,1.157.167H58.415a4.091,4.091,0,0,0,1.157-.167Z" transform="translate(-11.155 -90.222)" fill="#077b86"/>
  <path id="Path_11594" data-name="Path 11594" d="M51.952,17.789l-5.1-3.691V10.023h0a1.021,1.021,0,0,0-.3-.723l-9-9a1.02,1.02,0,0,0-.722-.3V0H8.593A3.072,3.072,0,0,0,5.524,3.069V14.1l-5.1,3.691A1.023,1.023,0,0,0,0,18.618V47.26a5.121,5.121,0,0,0,5.115,5.115H47.26a5.121,5.121,0,0,0,5.115-5.115V18.618A1.023,1.023,0,0,0,51.952,17.789Zm-2.172.954-2.929,2.929V16.623ZM37.849,3.492,43.358,9H38.872a1.024,1.024,0,0,1-1.023-1.023ZM8.593,2.046H35.8V7.977a3.072,3.072,0,0,0,3.069,3.069h5.933V23.718l-11.2,11.2-1.476-1.476a8.407,8.407,0,0,0-11.875,0l-1.476,1.476-11.2-11.2V3.069A1.024,1.024,0,0,1,8.593,2.046ZM46.115,50.329H6.26l3.478-3.478H27.7a1.023,1.023,0,0,0,0-2.046H11.784l2.864-2.864h7.038a1.023,1.023,0,0,0,0-2.046H16.694l5-5a6.358,6.358,0,0,1,8.982,0ZM5.524,21.672,2.595,18.743l2.929-2.119ZM2.046,47.26V21.087L17.327,36.369,3.783,49.913c-.025.025-.048.05-.069.077A3.072,3.072,0,0,1,2.046,47.26Zm46.615,2.729c-.022-.026-.045-.052-.069-.077l-1.127-1.127V37.934a1.023,1.023,0,0,0-2.046,0V46.74L35.048,36.369,50.329,21.087V47.26A3.071,3.071,0,0,1,48.661,49.989Z"/>
  <path id="Path_11595" data-name="Path 11595" d="M53.367,53.608H76.281a1.023,1.023,0,0,0,0-2.046H53.367a1.023,1.023,0,1,0,0,2.046Z" transform="translate(-38.636 -38.06)"/>
  <path id="Path_11596" data-name="Path 11596" d="M53.367,73.921H76.281a1.023,1.023,0,0,0,0-2.046H53.367a1.023,1.023,0,1,0,0,2.046Z" transform="translate(-38.636 -53.053)"/>
  <path id="Path_11597" data-name="Path 11597" d="M114.921,92.188a1.023,1.023,0,1,0,.723.3A1.031,1.031,0,0,0,114.921,92.188Z" transform="translate(-84.071 -68.046)"/>
  <path id="Path_11598" data-name="Path 11598" d="M53.367,94.233H64.824a1.023,1.023,0,0,0,0-2.046H53.367a1.023,1.023,0,1,0,0,2.046Z" transform="translate(-38.636 -68.046)"/>
  <path id="Path_11599" data-name="Path 11599" d="M174.46,124.965a1.023,1.023,0,1,0,.723.3A1.031,1.031,0,0,0,174.46,124.965Z" transform="translate(-128.019 -92.24)"/>
</svg>
